<svg xmlns="http://www.w3.org/2000/svg" viewBox="0 0 192 192">
  <rect width="192" height="192" fill="#080808"/>
  <circle cx="96" cy="88" r="30" fill="#ffaa00"/>
  <rect x="90" y="12" width="12" height="24" fill="#ffaa00" transform="rotate(0,96,88)"/>
  <rect x="90" y="12" width="12" height="24" fill="#ffaa00" transform="rotate(45,96,88)"/>
  <rect x="90" y="12" width="12" height="24" fill="#ffaa00" transform="rotate(90,96,88)"/>
  <rect x="90" y="12" width="12" height="24" fill="#ffaa00" transform="rotate(135,96,88)"/>
  <rect x="90" y="12" width="12" height="24" fill="#ffaa00" transform="rotate(180,96,88)"/>
  <rect x="90" y="12" width="12" height="24" fill="#ffaa00" transform="rotate(225,96,88)"/>
  <rect x="90" y="12" width="12" height="24" fill="#ffaa00" transform="rotate(270,96,88)"/>
  <rect x="90" y="12" width="12" height="24" fill="#ffaa00" transform="rotate(315,96,88)"/>
  <rect x="24" y="148" width="144" height="16" rx="6" fill="#ffaa00" opacity="0.6"/>
</svg>
